<svg width="700" viewBox="0 0 680 420" xmlns="http://www.w3.org/2000/svg">
<defs>
  <marker id="arr" viewBox="0 0 10 10" refX="8" refY="5" markerWidth="6" markerHeight="6" orient="auto-start-reverse">
    <path d="M2 1L8 5L2 9" fill="none" stroke="#888780" stroke-width="1.5" stroke-linecap="round" stroke-linejoin="round"/>
  </marker>
  <style>
    .th{font-family:-apple-system,sans-serif;font-size:14px;font-weight:500;}
    .ts{font-family:-apple-system,sans-serif;font-size:12px;}
    .c-teal  rect{fill:#e1f5ee;stroke:#0f6e56;stroke-width:0.5;} .c-teal  .th{fill:#085041;} .c-teal .ts{fill:#0f6e56;}
    .c-blue  rect{fill:#e6f1fb;stroke:#185fa5;stroke-width:0.5;} .c-blue  .th{fill:#0c447c;} .c-blue .ts{fill:#185fa5;}
    .c-amber rect{fill:#faeeda;stroke:#854f0b;stroke-width:0.5;} .c-amber .th{fill:#633806;} .c-amber .ts{fill:#854f0b;}
    .c-gray  rect{fill:#f1efe8;stroke:#5f5e5a;stroke-width:0.5;} .c-gray  .th{fill:#2c2c2a;} .c-gray .ts{fill:#5f5e5a;}
    .c-red   rect{fill:#fcebeb;stroke:#a32d2d;stroke-width:0.5;} .c-red   .th{fill:#791f1f;} .c-red .ts{fill:#a32d2d;}
  </style>
</defs>
<g class="c-teal"><rect x="260" y="16" width="160" height="36" rx="18"/>
<text class="th" x="340" y="34" text-anchor="middle" dominant-baseline="central">Watch Mode on</text></g>
<line x1="340" y1="52" x2="340" y2="72" stroke="#888780" stroke-width="1.5" marker-end="url(#arr)"/>
<polygon points="340,74 420,100 340,126 260,100" fill="none" stroke="#888780" stroke-width="0.5"/>
<text font-family="-apple-system,sans-serif" font-size="12" fill="#5f5e5a" x="340" y="96" text-anchor="middle" dominant-baseline="central">isCapturing</text>
<text font-family="-apple-system,sans-serif" font-size="12" fill="#5f5e5a" x="340" y="112" text-anchor="middle" dominant-baseline="central">= true?</text>
<line x1="420" y1="100" x2="520" y2="100" stroke="#888780" stroke-width="1.5" marker-end="url(#arr)"/>
<text font-family="-apple-system,sans-serif" font-size="12" fill="#888780" x="470" y="92" text-anchor="middle">Yes</text>
<g class="c-gray"><rect x="522" y="82" width="96" height="36" rx="6"/>
<text class="th" x="570" y="100" text-anchor="middle" dominant-baseline="central">Skip frame</text></g>
<line x1="340" y1="126" x2="340" y2="148" stroke="#888780" stroke-width="1.5" marker-end="url(#arr)"/>
<text font-family="-apple-system,sans-serif" font-size="12" fill="#888780" x="346" y="140" text-anchor="start">No</text>
<g class="c-blue"><rect x="246" y="150" width="188" height="36" rx="6"/>
<text class="th" x="340" y="168" text-anchor="middle" dominant-baseline="central">Capture frame + detect()</text></g>
<line x1="340" y1="186" x2="340" y2="206" stroke="#888780" stroke-width="1.5" marker-end="url(#arr)"/>
<polygon points="340,208 424,232 340,256 256,232" fill="none" stroke="#888780" stroke-width="0.5"/>
<text font-family="-apple-system,sans-serif" font-size="12" fill="#5f5e5a" x="340" y="228" text-anchor="middle" dominant-baseline="central">Result is</text>
<text font-family="-apple-system,sans-serif" font-size="12" fill="#5f5e5a" x="340" y="244" text-anchor="middle" dominant-baseline="central">CLEAR?</text>
<line x1="424" y1="232" x2="530" y2="232" stroke="#888780" stroke-width="1.5" marker-end="url(#arr)"/>
<text font-family="-apple-system,sans-serif" font-size="12" fill="#888780" x="477" y="224" text-anchor="middle">Yes</text>
<g class="c-gray"><rect x="532" y="214" width="108" height="36" rx="6"/>
<text class="th" x="586" y="232" text-anchor="middle" dominant-baseline="central">Silent / schedule</text></g>
<line x1="340" y1="256" x2="340" y2="276" stroke="#888780" stroke-width="1.5" marker-end="url(#arr)"/>
<text font-family="-apple-system,sans-serif" font-size="12" fill="#888780" x="346" y="268" text-anchor="start">No</text>
<polygon points="340,278 420,300 340,322 260,300" fill="none" stroke="#888780" stroke-width="0.5"/>
<text font-family="-apple-system,sans-serif" font-size="12" fill="#5f5e5a" x="340" y="296" text-anchor="middle" dominant-baseline="central">Jaccard &#x2265;</text>
<text font-family="-apple-system,sans-serif" font-size="12" fill="#5f5e5a" x="340" y="312" text-anchor="middle" dominant-baseline="central">0.40?</text>
<line x1="260" y1="300" x2="160" y2="300" stroke="#888780" stroke-width="1.5" marker-end="url(#arr)"/>
<text font-family="-apple-system,sans-serif" font-size="12" fill="#888780" x="210" y="292" text-anchor="middle">No (new)</text>
<polygon points="160,302 240,322 160,342 80,322" fill="none" stroke="#888780" stroke-width="0.5"/>
<text font-family="-apple-system,sans-serif" font-size="12" fill="#5f5e5a" x="160" y="318" text-anchor="middle" dominant-baseline="central">Hazard?</text>
<line x1="160" y1="342" x2="160" y2="364" stroke="#888780" stroke-width="1.5" marker-end="url(#arr)"/>
<text font-family="-apple-system,sans-serif" font-size="12" fill="#888780" x="166" y="356" text-anchor="start">Yes</text>
<g class="c-red"><rect x="80" y="366" width="160" height="36" rx="6"/>
<text class="th" x="160" y="384" text-anchor="middle" dominant-baseline="central">Speak high + haptic warn</text></g>
<line x1="420" y1="300" x2="530" y2="300" stroke="#888780" stroke-width="1.5" marker-end="url(#arr)"/>
<text font-family="-apple-system,sans-serif" font-size="12" fill="#888780" x="475" y="292" text-anchor="middle">Similar</text>
<g class="c-gray"><rect x="532" y="282" width="108" height="36" rx="6"/>
<text class="th" x="586" y="300" text-anchor="middle" dominant-baseline="central">Suppress &#xB7; skip</text></g>
<g class="c-teal"><rect x="500" y="370" width="150" height="36" rx="6"/>
<text class="th" x="575" y="388" text-anchor="middle" dominant-baseline="central">setTimeout 3000ms</text></g>
<text font-family="-apple-system,sans-serif" font-size="12" fill="#888780" x="340" y="408" text-anchor="middle">Figure 3.7 &#x2014; Watch Mode frame loop: capture, CLEAR check, Jaccard filter, hazard bypass</text>
</svg>