<svg width="700" viewBox="0 0 680 400" xmlns="http://www.w3.org/2000/svg">
<defs>
  <marker id="arr" viewBox="0 0 10 10" refX="8" refY="5" markerWidth="6" markerHeight="6" orient="auto-start-reverse">
    <path d="M2 1L8 5L2 9" fill="none" stroke="#888780" stroke-width="1.5" stroke-linecap="round" stroke-linejoin="round"/>
  </marker>
  <style>
    .th{font-family:-apple-system,sans-serif;font-size:14px;font-weight:500;}
    .ts{font-family:-apple-system,sans-serif;font-size:12px;}
    .c-gray  rect{fill:#f1efe8;stroke:#5f5e5a;stroke-width:0.5;} .c-gray  .th{fill:#2c2c2a;} .c-gray .ts{fill:#5f5e5a;}
    .c-teal  rect{fill:#e1f5ee;stroke:#0f6e56;stroke-width:0.5;} .c-teal  .th{fill:#085041;} .c-teal .ts{fill:#0f6e56;}
    .c-amber rect{fill:#faeeda;stroke:#854f0b;stroke-width:0.5;} .c-amber .th{fill:#633806;} .c-amber .ts{fill:#854f0b;}
  </style>
</defs>
<g class="c-gray"><rect x="270" y="20" width="140" height="40" rx="20"/>
<text class="th" x="340" y="40" text-anchor="middle" dominant-baseline="central">detect() called</text></g>
<line x1="340" y1="60" x2="340" y2="82" stroke="#888780" stroke-width="1.5" marker-end="url(#arr)"/>
<polygon points="340,84 430,116 340,148 250,116" fill="none" stroke="#888780" stroke-width="0.5"/>
<text font-family="-apple-system,sans-serif" font-size="12" fill="#5f5e5a" x="340" y="110" text-anchor="middle" dominant-baseline="central">Connected</text>
<text font-family="-apple-system,sans-serif" font-size="12" fill="#5f5e5a" x="340" y="126" text-anchor="middle" dominant-baseline="central">&amp; has keys?</text>
<line x1="430" y1="116" x2="530" y2="116" stroke="#888780" stroke-width="1.5" marker-end="url(#arr)"/>
<text font-family="-apple-system,sans-serif" font-size="12" fill="#888780" x="480" y="108" text-anchor="middle">Yes</text>
<g class="c-teal"><rect x="530" y="92" width="120" height="48" rx="6"/>
<text class="th" x="590" y="110" text-anchor="middle" dominant-baseline="central">Gemini API</text>
<text class="ts" x="590" y="128" text-anchor="middle" dominant-baseline="central">12s timeout</text></g>
<line x1="590" y1="140" x2="590" y2="180" stroke="#888780" stroke-width="1.5" marker-end="url(#arr)"/>
<text font-family="-apple-system,sans-serif" font-size="12" fill="#888780" x="596" y="162" text-anchor="start">success</text>
<g class="c-teal"><rect x="530" y="182" width="120" height="36" rx="6"/>
<text class="th" x="590" y="200" text-anchor="middle" dominant-baseline="central">{result, "online"}</text></g>
<line x1="530" y1="116" x2="460" y2="116" stroke="#D85A30" stroke-width="1" stroke-dasharray="5 3"/>
<line x1="460" y1="116" x2="460" y2="200" stroke="#D85A30" stroke-width="1" stroke-dasharray="5 3"/>
<line x1="460" y1="200" x2="430" y2="200" stroke="#D85A30" stroke-width="1" stroke-dasharray="5 3" marker-end="url(#arr)"/>
<text font-family="-apple-system,sans-serif" font-size="12" fill="#D85A30" x="452" y="162" text-anchor="end">timeout/429</text>
<line x1="340" y1="148" x2="340" y2="170" stroke="#888780" stroke-width="1.5" marker-end="url(#arr)"/>
<text font-family="-apple-system,sans-serif" font-size="12" fill="#888780" x="346" y="162" text-anchor="start">No</text>
<polygon points="340,172 420,200 340,228 260,200" fill="none" stroke="#888780" stroke-width="0.5"/>
<text font-family="-apple-system,sans-serif" font-size="12" fill="#5f5e5a" x="340" y="196" text-anchor="middle" dominant-baseline="central">Read</text>
<text font-family="-apple-system,sans-serif" font-size="12" fill="#5f5e5a" x="340" y="212" text-anchor="middle" dominant-baseline="central">mode?</text>
<line x1="260" y1="200" x2="180" y2="200" stroke="#888780" stroke-width="1.5" marker-end="url(#arr)"/>
<text font-family="-apple-system,sans-serif" font-size="12" fill="#888780" x="220" y="192" text-anchor="middle">Yes</text>
<g class="c-amber"><rect x="60" y="178" width="118" height="44" rx="6"/>
<text class="th" x="119" y="196" text-anchor="middle" dominant-baseline="central">ML Kit Text</text>
<text class="ts" x="119" y="213" text-anchor="middle" dominant-baseline="central">Recognition</text></g>
<line x1="340" y1="228" x2="340" y2="258" stroke="#888780" stroke-width="1.5" marker-end="url(#arr)"/>
<text font-family="-apple-system,sans-serif" font-size="12" fill="#888780" x="346" y="246" text-anchor="start">No</text>
<g class="c-amber"><rect x="240" y="260" width="200" height="44" rx="6"/>
<text class="th" x="340" y="278" text-anchor="middle" dominant-baseline="central">ML Kit Image Labeling</text>
<text class="ts" x="340" y="295" text-anchor="middle" dominant-baseline="central">Top-6 confidence labels</text></g>
<line x1="340" y1="304" x2="340" y2="330" stroke="#888780" stroke-width="1.5" marker-end="url(#arr)"/>
<line x1="119" y1="222" x2="119" y2="342" stroke="#888780" stroke-width="1.5"/>
<line x1="119" y1="342" x2="270" y2="342" stroke="#888780" stroke-width="1.5" marker-end="url(#arr)"/>
<g class="c-amber"><rect x="272" y="330" width="136" height="36" rx="6"/>
<text class="th" x="340" y="348" text-anchor="middle" dominant-baseline="central">{result, "offline"}</text></g>
<text font-family="-apple-system,sans-serif" font-size="12" fill="#888780" x="340" y="388" text-anchor="middle">Figure 3.6 &#x2014; Online vs. offline detection routing decision flow</text>
</svg>