<svg width="700" viewBox="0 0 680 340" xmlns="http://www.w3.org/2000/svg">
<defs>
  <marker id="arr" viewBox="0 0 10 10" refX="8" refY="5" markerWidth="6" markerHeight="6" orient="auto-start-reverse">
    <path d="M2 1L8 5L2 9" fill="none" stroke="#888780" stroke-width="1.5" stroke-linecap="round" stroke-linejoin="round"/>
  </marker>
  <style>
    .th{font-family:-apple-system,sans-serif;font-size:14px;font-weight:500;}
    .ts{font-family:-apple-system,sans-serif;font-size:12px;}
    .c-blue rect{fill:#e6f1fb;stroke:#185fa5;stroke-width:0.5;} .c-blue .th{fill:#0c447c;} .c-blue .ts{fill:#185fa5;}
  </style>
</defs>
<rect x="140" y="20" width="400" height="290" rx="12" fill="none" stroke="#888780" stroke-width="0.5" stroke-dasharray="6 4"/>
<text font-family="-apple-system,sans-serif" font-size="12" fill="#888780" x="340" y="14" text-anchor="middle">Abserny system</text>
<g class="c-blue"><ellipse cx="340" cy="75" rx="100" ry="24" stroke-width="0.5"/>
<text class="th" x="340" y="75" text-anchor="middle" dominant-baseline="central">Scan environment</text></g>
<g class="c-blue"><ellipse cx="340" cy="140" rx="100" ry="24" stroke-width="0.5"/>
<text class="th" x="340" y="140" text-anchor="middle" dominant-baseline="central">Repeat last result</text></g>
<g class="c-blue"><ellipse cx="340" cy="205" rx="100" ry="24" stroke-width="0.5"/>
<text class="th" x="340" y="205" text-anchor="middle" dominant-baseline="central">Switch detection mode</text></g>
<g class="c-blue"><ellipse cx="340" cy="270" rx="100" ry="24" stroke-width="0.5"/>
<text class="th" x="340" y="270" text-anchor="middle" dominant-baseline="central">Toggle Watch Mode</text></g>
<ellipse cx="72" cy="170" rx="20" ry="20" fill="none" stroke="#888780" stroke-width="1"/>
<line x1="72" y1="190" x2="72" y2="220" stroke="#888780" stroke-width="1"/>
<line x1="72" y1="200" x2="52" y2="215" stroke="#888780" stroke-width="1"/>
<line x1="72" y1="200" x2="92" y2="215" stroke="#888780" stroke-width="1"/>
<line x1="72" y1="220" x2="57" y2="240" stroke="#888780" stroke-width="1"/>
<line x1="72" y1="220" x2="87" y2="240" stroke="#888780" stroke-width="1"/>
<text font-family="-apple-system,sans-serif" font-size="12" fill="#888780" x="72" y="255" text-anchor="middle">Visually</text>
<text font-family="-apple-system,sans-serif" font-size="12" fill="#888780" x="72" y="268" text-anchor="middle">impaired user</text>
<line x1="92" y1="75"  x2="238" y2="75"  stroke="#888780" stroke-width="1"/>
<line x1="92" y1="140" x2="238" y2="140" stroke="#888780" stroke-width="1"/>
<line x1="92" y1="205" x2="238" y2="205" stroke="#888780" stroke-width="1"/>
<line x1="92" y1="270" x2="238" y2="270" stroke="#888780" stroke-width="1"/>
<ellipse cx="608" cy="75" rx="20" ry="20" fill="none" stroke="#888780" stroke-width="1"/>
<line x1="608" y1="95" x2="608" y2="125" stroke="#888780" stroke-width="1"/>
<line x1="608" y1="105" x2="588" y2="120" stroke="#888780" stroke-width="1"/>
<line x1="608" y1="105" x2="628" y2="120" stroke="#888780" stroke-width="1"/>
<line x1="608" y1="125" x2="593" y2="145" stroke="#888780" stroke-width="1"/>
<line x1="608" y1="125" x2="623" y2="145" stroke="#888780" stroke-width="1"/>
<text font-family="-apple-system,sans-serif" font-size="12" fill="#888780" x="608" y="158" text-anchor="middle">AI backend</text>
<text font-family="-apple-system,sans-serif" font-size="12" fill="#888780" x="608" y="171" text-anchor="middle">(Gemini / ML Kit)</text>
<line x1="440" y1="75" x2="586" y2="75" stroke="#888780" stroke-width="1"/>
<text font-family="-apple-system,sans-serif" font-size="12" fill="#888780" x="340" y="326" text-anchor="middle">Figure 3.3 &#x2014; Use case diagram: Abserny system interactions</text>
</svg>